{
  "accessors": [
    {
      "bufferView": 2,
      "componentType": 5126,
      "count": 549,
      "max": [
        -0.019950661808252335,
        -0.10242272913455963,
        1.6826086044311523
      ],
      "min": [
        -0.04632816091179848,
        -0.13005191087722778,
        1.6562198400497437
      ],
      "type": "VEC3"
    },
    {
      "bufferView": 2,
      "byteOffset": 6588,
      "componentType": 5126,
      "count": 549,
      "max": [
        1.0,
        1.0,
        1.0
      ],
      "min": [
        -1.0,
        -1.0,
        -1.0
      ],
      "type": "VEC3"
    },
    {
      "bufferView": 1,
      "componentType": 5126,
      "count": 549,
      "max": [
        0.981486439704895,
        0.9869884848594666
      ],
      "min": [
        0.02284824848175049,
        0.007042514160275459
      ],
      "type": "VEC2"
    },
    {
      "bufferView": 0,
      "componentType": 5125,
      "count": 2760,
      "type": "SCALAR"
    },
    {
      "bufferView": 2,
      "byteOffset": 13176,
      "componentType": 5126,
      "count": 549,
      "max": [
        0.04632816091179848,
        -0.10242272913455963,
        1.6826086044311523
      ],
      "min": [
        0.019950661808252335,
        -0.13005191087722778,
        1.6562198400497437
      ],
      "type": "VEC3"
    },
    {
      "bufferView": 2,
      "byteOffset": 19764,
      "componentType": 5126,
      "count": 549,
      "max": [
        1.0,
        1.0,
        1.0
      ],
      "min": [
        -1.0,
        -1.0,
        -1.0
      ],
      "type": "VEC3"
    },
    {
      "bufferView": 1,
      "byteOffset": 4392,
      "componentType": 5126,
      "count": 549,
      "max": [
        0.981486439704895,
        0.9869884848594666
      ],
      "min": [
        0.02284824848175049,
        0.007042514160275459
      ],
      "type": "VEC2"
    },
    {
      "bufferView": 0,
      "byteOffset": 11040,
      "componentType": 5125,
      "count": 2760,
      "type": "SCALAR"
    },
    {
      "bufferView": 2,
      "byteOffset": 26352,
      "componentType": 5126,
      "count": 5958,
      "max": [
        0.08836498111486435,
        0.0650099441409111,
        1.7836780548095703
      ],
      "min": [
        -0.08836498111486435,
        -0.16377687454223633,
        1.474453091621399
      ],
      "type": "VEC3"
    },
    {
      "bufferView": 2,
      "byteOffset": 97848,
      "componentType": 5126,
      "count": 5958,
      "max": [
        0.9996626377105713,
        1.0,
        0.9997707605361938
      ],
      "min": [
        -0.9996626377105713,
        -0.9999312162399292,
        -0.9999271035194397
      ],
      "type": "VEC3"
    },
    {
      "bufferView": 1,
      "byteOffset": 8784,
      "componentType": 5126,
      "count": 5958,
      "max": [
        0.5151410102844238,
        0.4390130043029785
      ],
      "min": [
        0.0017839999636635184,
        0.001724999980069697
      ],
      "type": "VEC2"
    },
    {
      "bufferView": 0,
      "byteOffset": 22080,
      "componentType": 5125,
      "count": 34524,
      "type": "SCALAR"
    }
  ],
  "asset": {
    "extras": {
      "author": "VistaPrime (https://sketchfab.com/VistaPrime)",
      "license": "CC-BY-4.0 (http://creativecommons.org/licenses/by/4.0/)",
      "source": "https://sketchfab.com/3d-models/human-head-f46d952886ae4a8c8851341b810bba43",
      "title": "Human Head"
    },
    "generator": "Sketchfab-13.28.0",
    "version": "2.0"
  },
  "bufferViews": [
    {
      "buffer": 0,
      "byteLength": 160176,
      "name": "floatBufferViews",
      "target": 34963
    },
    {
      "buffer": 0,
      "byteLength": 56448,
      "byteOffset": 160176,
      "byteStride": 8,
      "name": "floatBufferViews",
      "target": 34962
    },
    {
      "buffer": 0,
      "byteLength": 169344,
      "byteOffset": 216624,
      "byteStride": 12,
      "name": "floatBufferViews",
      "target": 34962
    }
  ],
  "buffers": [
    {
      "byteLength": 385968,
      "uri": "scene.bin"
    }
  ],
  "materials": [
    {
      "doubleSided": true,
      "name": "Material.002",
      "pbrMetallicRoughness": {
        "baseColorFactor": [
          0.8,
          0.8,
          0.8,
          1.0
        ],
        "metallicFactor": 0.0,
        "roughnessFactor": 0.8211145618000169
      }
    },
    {
      "doubleSided": true,
      "name": "Material.004",
      "pbrMetallicRoughness": {
        "baseColorFactor": [
          0.8,
          0.8,
          0.8,
          1.0
        ],
        "metallicFactor": 0.0,
        "roughnessFactor": 0.8211145618000169
      }
    }
  ],
  "meshes": [
    {
      "name": "eye_low_L_Material.002_0",
      "primitives": [
        {
          "attributes": {
            "NORMAL": 1,
            "POSITION": 0,
            "TEXCOORD_0": 2
          },
          "indices": 3,
          "material": 0,
          "mode": 4
        }
      ]
    },
    {
      "name": "eye_low_L.001_Material.002_0",
      "primitives": [
        {
          "attributes": {
            "NORMAL": 5,
            "POSITION": 4,
            "TEXCOORD_0": 6
          },
          "indices": 7,
          "material": 0,
          "mode": 4
        }
      ]
    },
    {
      "name": "man_body_0014 uv map_Material.004_0",
      "primitives": [
        {
          "attributes": {
            "NORMAL": 9,
            "POSITION": 8,
            "TEXCOORD_0": 10
          },
          "indices": 11,
          "material": 1,
          "mode": 4
        }
      ]
    }
  ],
  "nodes": [
    {
      "children": [
        1
      ],
      "matrix": [
        0.8291327953338623,
        -0.0121731245890261,
        0.5589191317558289,
        0.0,
        0.5588589310646057,
        -0.008205029182135875,
        -0.8292221426963806,
        0.0,
        0.014680172316730022,
        0.9998922348022461,
        2.2202067624427137e-16,
        0.0,
        0.0,
        0.0,
        0.0,
        1.0
      ],
      "name": "Sketchfab_model"
    },
    {
      "children": [
        2
      ],
      "matrix": [
        0.009999999776482582,
        0.0,
        0.0,
        0.0,
        0.0,
        0.0,
        0.009999999776482582,
        0.0,
        0.0,
        -0.009999999776482582,
        0.0,
        0.0,
        0.0,
        0.0,
        0.0,
        1.0
      ],
      "name": "4f214240a3724bd18b5543df39385e72.fbx"
    },
    {
      "children": [
        3,
        5,
        7
      ],
      "name": "RootNode"
    },
    {
      "children": [
        4
      ],
      "matrix": [
        100.0,
        0.0,
        0.0,
        0.0,
        0.0,
        -1.629206793918314e-05,
        -99.99999999999868,
        0.0,
        0.0,
        99.99999999999868,
        -1.629206793918314e-05,
        0.0,
        0.0,
        0.0,
        0.0,
        1.0
      ],
      "name": "eye_low_L"
    },
    {
      "mesh": 0,
      "name": "eye_low_L_Material.002_0"
    },
    {
      "children": [
        6
      ],
      "matrix": [
        100.0,
        0.0,
        0.0,
        0.0,
        0.0,
        -1.629206793918314e-05,
        -99.99999999999868,
        0.0,
        0.0,
        99.99999999999868,
        -1.629206793918314e-05,
        0.0,
        0.0,
        0.0,
        0.0,
        1.0
      ],
      "name": "eye_low_L.001"
    },
    {
      "mesh": 1,
      "name": "eye_low_L.001_Material.002_0"
    },
    {
      "children": [
        8
      ],
      "matrix": [
        100.0,
        0.0,
        0.0,
        0.0,
        0.0,
        -1.629206793918314e-05,
        -99.99999999999868,
        0.0,
        0.0,
        99.99999999999868,
        -1.629206793918314e-05,
        0.0,
        0.0,
        0.0,
        0.0,
        1.0
      ],
      "name": "man_body_0014 uv map"
    },
    {
      "mesh": 2,
      "name": "man_body_0014 uv map_Material.004_0"
    }
  ],
  "scene": 0,
  "scenes": [
    {
      "name": "Sketchfab_Scene",
      "nodes": [
        0
      ]
    }
  ]
}
