<?xml version="1.0" encoding="UTF-8"?>
<svg id="Layer_1" data-name="Layer 1" xmlns="http://www.w3.org/2000/svg" viewBox="0 0 100 100">
  <defs>
    <style>
      .cls-1 {
        fill: #29abe2;
        stroke-width: 0px;
      }
    </style>
  </defs>
  <path class="cls-1" d="M100,50.45l-6.04-9.03-5.63-7.43-.98-8.23-1.91-10.7-10.66-2.11-9.23-1.28-6.51-5.13L50.12.33l-9.03,6.04-7.43,5.63-8.23.98-10.7,1.91-2.11,10.66-1.28,9.23-5.13,6.51L0,50.2l6.04,9.03,5.63,7.43.98,8.23,1.91,10.7,10.66,2.11,9.23,1.28,6.51,5.13,8.92,6.21,9.03-6.04,7.43-5.63,8.23-.98,10.7-1.91,2.11-10.66,1.28-9.23,5.13-6.51,6.21-8.92ZM43.05,66.72l-4.41-4.76-5.15-4.95.25-6.48-.14-7.15,4.76-4.41,4.95-5.15,6.48.25,7.15-.14,4.41,4.76,5.15,4.95-.25,6.48.14,7.15-4.76,4.41-4.95,5.15-6.48-.25-7.15.14Z"/>
</svg>