<?xml version="1.0" encoding="UTF-8"?>
<svg id="Layer_1" data-name="Layer 1" xmlns="http://www.w3.org/2000/svg" viewBox="0 0 100 100">
  <defs>
    <style>
      .cls-1 {
        fill: #29abe2;
        stroke-width: 0px;
      }
    </style>
  </defs>
  <path class="cls-1" d="M95.12,42.19c-.42-.23-.85-.44-1.3-.6-.95-.34-1.97-.49-3-.62-.85-.11-1.71-.2-2.54-.37-.12-.03-.25-.06-.38-.08,2.06-3.21,3.27-7.01,3.27-11.11,0-11.37-9.22-20.59-20.59-20.59-4.1,0-7.9,1.21-11.11,3.27-.03-.13-.06-.26-.08-.38-.17-.82-.26-1.68-.37-2.54-.13-1.02-.28-2.04-.62-3-.16-.45-.37-.88-.6-1.3C56.4,2,53.43,0,50,0s-6.39,1.99-7.81,4.88c-.23.42-.44.85-.6,1.3-.34.95-.49,1.97-.62,3-.11.85-.2,1.71-.37,2.54-.03.12-.06.25-.08.38-3.21-2.06-7.01-3.27-11.11-3.27-11.37,0-20.59,9.22-20.59,20.59,0,4.1,1.21,7.9,3.27,11.11-.13.03-.26.06-.38.08-.82.17-1.68.26-2.54.37-1.02.13-2.04.28-3,.62-.45.16-.88.37-1.3.6C2,43.6,0,46.57,0,50s1.99,6.39,4.88,7.81c.42.23.85.44,1.3.6.95.34,1.97.49,3,.62.85.11,1.71.2,2.54.37.12.03.25.06.38.08-2.06,3.21-3.27,7.01-3.27,11.11,0,11.37,9.22,20.59,20.59,20.59,4.1,0,7.9-1.21,11.11-3.27.03.13.06.26.08.38.17.82.26,1.68.37,2.54.13,1.02.28,2.04.62,3,.16.45.37.88.6,1.3,1.41,2.89,4.38,4.89,7.81,4.89s6.39-1.99,7.81-4.88c.23-.42.44-.85.6-1.3.34-.95.49-1.97.62-3,.11-.85.2-1.71.37-2.54.03-.12.06-.25.08-.38,3.21,2.06,7.01,3.27,11.11,3.27,11.37,0,20.59-9.22,20.59-20.59,0-4.1-1.21-7.9-3.27-11.11.13-.03.26-.06.38-.08.82-.17,1.68-.26,2.54-.37,1.02-.13,2.04-.28,3-.62.45-.16.88-.37,1.3-.6,2.89-1.41,4.89-4.38,4.89-7.81s-1.99-6.39-4.88-7.81Z"/>
</svg>