<?xml version="1.0" encoding="utf-8"?>
<!-- Generator: Adobe Illustrator 28.3.0, SVG Export Plug-In . SVG Version: 6.00 Build 0)  -->
<svg version="1.1" id="레이어_1" xmlns="http://www.w3.org/2000/svg" xmlns:xlink="http://www.w3.org/1999/xlink" x="0px"
	 y="0px" viewBox="0 0 1200 1200" style="enable-background:new 0 0 1200 1200;" xml:space="preserve">
<g>
	<path d="M28.22,477.74l0.3,1.75c8.44,0,12.36,7.68,13.26,15.37L67.1,705.14c1.21,7.68-0.9,15.37-9.34,15.37v1.75h77.76
		c36.47,0,81.08-18.86,68.42-122.26c-12.36-103.39-61.49-122.26-97.95-122.26H28.22z M82.17,720.51
		c22.6-6.29,34.66-27.94,31.04-58.68L98.15,538.17c-3.62-30.74-21.1-52.4-45.21-58.68h53.35c35.26,0,37.37,45.41,46.42,120.51
		s18.08,120.51-17.18,120.51H82.17z"/>
	<path d="M214.49,600c12.06,99.2,67.21,123.3,108.2,123.3c41.29,0,90.72-24.1,78.67-123.3s-67.21-123.3-108.5-123.3
		C251.86,476.7,202.43,500.8,214.49,600z M349.51,600c11.15,91.17,12.66,121.56-27.13,121.56S275.37,675.45,266.03,600
		c-9.04-75.45-12.96-121.21,26.82-121.21S340.47,524.55,349.51,600z"/>
	<path d="M411.6,600c12.06,99.2,67.21,123.3,108.2,123.3c41.29,0,90.72-24.1,78.67-123.3s-67.21-123.3-108.5-123.3
		C448.97,476.7,399.54,500.8,411.6,600z M546.63,600c11.15,91.17,12.66,121.56-27.13,121.56S472.48,675.45,463.14,600
		c-9.04-75.45-12.96-121.21,26.82-121.21C529.75,478.79,537.58,524.55,546.63,600z"/>
	<path d="M608.71,600c12.06,99.2,67.21,123.3,108.2,123.3c41.29,0,90.72-24.1,78.67-123.3s-67.21-123.3-108.5-123.3
		C646.09,476.7,596.66,500.8,608.71,600z M743.74,600c11.15,91.17,12.66,121.56-27.13,121.56S669.59,675.45,660.25,600
		c-9.04-75.45-12.96-121.21,26.82-121.21C726.86,478.79,734.7,524.55,743.74,600z"/>
	<path d="M805.82,600c12.06,99.2,67.21,123.3,108.2,123.3c41.29,0,90.72-24.1,78.67-123.3s-67.21-123.3-108.5-123.3
		C843.2,476.7,793.77,500.8,805.82,600z M940.85,600c11.15,91.17,12.66,121.56-27.13,121.56c-39.78,0-47.02-46.11-56.36-121.56
		c-9.04-75.45-12.96-121.21,26.82-121.21C923.97,478.79,931.81,524.55,940.85,600z"/>
	<path d="M1130.13,477.74c-23.51,0-34.36,17.81-36.47,43.66l-6.93,73.35h-21.1l-12.06-99.9c-0.9-7.68,1.21-15.37,9.64-15.37
		l-0.3-1.75h-74.14l0.3,1.75c8.44,0,12.36,7.68,13.26,15.37l25.32,210.28c1.21,7.68-0.9,15.37-9.34,15.37v1.75h88.31
		c55.76,0,68.42-31.09,64.5-63.92c-5.12-40.87-20.5-60.78-69.62-63.22c22.91-3.14,40.99-21.66,42.5-48.2l3.32-52.05
		c0.6-11.53,6.33-15.37,14.77-15.37l-0.3-1.75H1130.13z M1065.93,596.51h18.39c27.73,0,29.24,10.83,35.57,61.83
		c3.62,30.74,4.52,62.18-37.98,62.18h-39.18c22.6-6.29,34.66-27.94,31.04-58.68L1065.93,596.51z"/>
</g>
</svg>
