<?xml version="1.0" encoding="utf-8"?>
<!-- Generator: Adobe Illustrator 28.3.0, SVG Export Plug-In . SVG Version: 6.00 Build 0)  -->
<svg version="1.1" id="레이어_1" xmlns="http://www.w3.org/2000/svg" xmlns:xlink="http://www.w3.org/1999/xlink" x="0px"
	 y="0px" viewBox="0 0 1200 1200" style="enable-background:new 0 0 1200 1200;" xml:space="preserve">
<g>
	<path d="M28.22,705.49l0.3-1.51c8.44,0,12.36-6.63,13.26-13.26L67.1,509.28c1.21-6.63-0.9-13.26-9.34-13.26v-1.51h77.76
		c36.47,0,81.08,16.28,68.42,105.49c-12.36,89.21-61.49,105.49-97.95,105.49H28.22z M82.17,496.02
		c22.6,5.43,34.66,24.11,31.04,50.64l-15.07,106.7c-3.62,26.52-21.1,45.21-45.21,50.64h53.35c35.26,0,37.37-39.18,46.42-103.98
		s18.08-103.98-17.18-103.98H82.17z"/>
	<path d="M214.49,600c12.06-85.6,67.21-106.39,108.2-106.39c41.29,0,90.72,20.8,78.67,106.39s-67.21,106.39-108.5,106.39
		C251.86,706.39,202.43,685.6,214.49,600z M349.51,600c11.15-78.67,12.66-104.89-27.13-104.89S275.37,534.9,266.03,600
		c-9.04,65.1-12.96,104.59,26.82,104.59S340.47,665.1,349.51,600z"/>
	<path d="M411.6,600c12.06-85.6,67.21-106.39,108.2-106.39c41.29,0,90.72,20.8,78.67,106.39s-67.21,106.39-108.5,106.39
		C448.97,706.39,399.54,685.6,411.6,600z M546.63,600c11.15-78.67,12.66-104.89-27.13-104.89S472.48,534.9,463.14,600
		c-9.04,65.1-12.96,104.59,26.82,104.59C529.75,704.59,537.58,665.1,546.63,600z"/>
	<path d="M608.71,600c12.06-85.6,67.21-106.39,108.2-106.39c41.29,0,90.72,20.8,78.67,106.39s-67.21,106.39-108.5,106.39
		C646.09,706.39,596.66,685.6,608.71,600z M743.74,600c11.15-78.67,12.66-104.89-27.13-104.89S669.59,534.9,660.25,600
		c-9.04,65.1-12.96,104.59,26.82,104.59C726.86,704.59,734.7,665.1,743.74,600z"/>
	<path d="M805.82,600c12.06-85.6,67.21-106.39,108.2-106.39c41.29,0,90.72,20.8,78.67,106.39s-67.21,106.39-108.5,106.39
		C843.2,706.39,793.77,685.6,805.82,600z M940.85,600c11.15-78.67,12.66-104.89-27.13-104.89c-39.78,0-47.02,39.78-56.36,104.89
		c-9.04,65.1-12.96,104.59,26.82,104.59C923.97,704.59,931.81,665.1,940.85,600z"/>
	<path d="M1130.13,705.49c-23.51,0-34.36-15.37-36.47-37.67l-6.93-63.29h-21.1l-12.06,86.2c-0.9,6.63,1.21,13.26,9.64,13.26
		l-0.3,1.51h-74.14l0.3-1.51c8.44,0,12.36-6.63,13.26-13.26l25.32-181.44c1.21-6.63-0.9-13.26-9.34-13.26v-1.51h88.31
		c55.76,0,68.42,26.82,64.5,55.16c-5.12,35.26-20.5,52.44-69.62,54.55c22.91,2.71,40.99,18.69,42.5,41.59l3.32,44.91
		c0.6,9.95,6.33,13.26,14.77,13.26l-0.3,1.51H1130.13z M1065.93,603.01h18.39c27.73,0,29.24-9.34,35.57-53.35
		c3.62-26.52,4.52-53.65-37.98-53.65h-39.18c22.6,5.43,34.66,24.11,31.04,50.64L1065.93,603.01z"/>
</g>
</svg>
