<?xml version="1.0" encoding="UTF-8"?><svg id="_레이어_1" xmlns="http://www.w3.org/2000/svg" viewBox="0 0 1200 1200"><defs><style>.cls-1{fill:#000;stroke-width:0px;}</style></defs><path class="cls-1" d="M28.22,477.74l.3,1.75c8.44,0,12.36,7.68,13.26,15.37l25.32,210.28c1.21,7.68-.9,15.37-9.34,15.37v1.75h77.76c36.47,0,81.08-18.86,68.42-122.26-12.36-103.39-61.49-122.26-97.95-122.26H28.22ZM82.17,720.51c22.6-6.29,34.66-27.94,31.04-58.68l-15.07-123.65c-3.62-30.74-21.1-52.4-45.21-58.68h53.35c35.26,0,37.37,45.41,46.42,120.51,9.04,75.1,18.08,120.51-17.18,120.51h-53.35Z"/><path class="cls-1" d="M214.49,600c12.06,99.2,67.21,123.3,108.2,123.3s90.72-24.1,78.67-123.3c-12.06-99.2-67.21-123.3-108.5-123.3s-90.42,24.1-78.36,123.3ZM349.51,600c11.15,91.17,12.66,121.56-27.13,121.56s-47.02-46.11-56.36-121.56c-9.04-75.45-12.96-121.21,26.82-121.21s47.62,45.76,56.66,121.21Z"/><path class="cls-1" d="M411.6,600c12.06,99.2,67.21,123.3,108.2,123.3s90.72-24.1,78.67-123.3-67.21-123.3-108.5-123.3-90.42,24.1-78.36,123.3ZM546.63,600c11.15,91.17,12.66,121.56-27.13,121.56s-47.02-46.11-56.36-121.56c-9.04-75.45-12.96-121.21,26.82-121.21s47.62,45.76,56.66,121.21Z"/><path class="cls-1" d="M608.71,600c12.06,99.2,67.21,123.3,108.2,123.3s90.72-24.1,78.67-123.3-67.21-123.3-108.5-123.3-90.42,24.1-78.36,123.3ZM743.74,600c11.15,91.17,12.66,121.56-27.13,121.56s-47.02-46.11-56.36-121.56c-9.04-75.45-12.96-121.21,26.82-121.21s47.62,45.76,56.66,121.21Z"/><path class="cls-1" d="M805.82,600c12.06,99.2,67.21,123.3,108.2,123.3s90.72-24.1,78.67-123.3-67.21-123.3-108.5-123.3-90.42,24.1-78.36,123.3ZM940.85,600c11.15,91.17,12.66,121.56-27.13,121.56s-47.02-46.11-56.36-121.56c-9.04-75.45-12.96-121.21,26.82-121.21s47.62,45.76,56.66,121.21Z"/><path class="cls-1" d="M1130.13,477.74c-23.51,0-34.36,17.81-36.47,43.66l-6.93,73.35h-21.1l-12.06-99.9c-.9-7.68,1.21-15.37,9.64-15.37l-.3-1.75h-74.14l.3,1.75c8.44,0,12.36,7.68,13.26,15.37l25.32,210.28c1.21,7.68-.9,15.37-9.34,15.37v1.75h88.31c55.76,0,68.42-31.09,64.5-63.92-5.12-40.87-20.5-60.78-69.62-63.22,22.91-3.14,40.99-21.66,42.5-48.2l3.32-52.05c.6-11.53,6.33-15.37,14.77-15.37l-.3-1.75h-31.65ZM1065.93,596.51h18.39c27.73,0,29.24,10.83,35.57,61.83,3.62,30.74,4.52,62.18-37.98,62.18h-39.18c22.6-6.29,34.66-27.94,31.04-58.68l-7.84-65.32Z"/></svg>